<svg width="430" height="430" viewBox="0 0 430 430" fill="none" xmlns="http://www.w3.org/2000/svg">
<path d="M359.82 85.0999C340.708 65.9747 314.899 55.0444 287.864 54.6262C260.829 54.208 234.695 64.3349 215 82.86C195.191 63.6543 168.564 53.1044 140.976 53.531C113.389 53.9577 87.1008 65.3259 67.8951 85.135C48.6895 104.944 38.1395 131.571 38.5662 159.159C38.9928 186.746 50.3611 213.034 70.1701 232.24L212.57 374.64C212.888 374.96 213.267 375.213 213.684 375.385C214.102 375.557 214.549 375.643 215 375.64C215.451 375.641 215.898 375.553 216.315 375.382C216.732 375.21 217.111 374.958 217.43 374.64L359.82 232.24C369.487 222.582 377.155 211.113 382.387 198.489C387.619 185.866 390.312 172.335 390.312 158.67C390.312 145.005 387.619 131.474 382.387 118.851C377.155 106.227 369.487 94.7584 359.82 85.0999Z" fill="#F28BA8"/>
<g style="mix-blend-mode:multiply" opacity="0.5">
<path d="M215.23 82.6399V375.64H215C214.549 375.643 214.102 375.557 213.684 375.385C213.267 375.213 212.888 374.96 212.57 374.64L70.1701 232.24C50.3611 213.034 38.9928 186.746 38.5662 159.159C38.1395 131.571 48.6895 104.944 67.8951 85.135C87.1008 65.3259 113.389 53.9577 140.976 53.531C168.564 53.1044 195.191 63.6543 215 82.86L215.23 82.6399Z" fill="#F28BA8"/>
</g>
<path d="M144.45 81.76C123.863 81.76 104.119 89.9375 89.5607 104.494C75.0025 119.05 66.8225 138.793 66.8198 159.38" stroke="#EBE6EF" stroke-width="7" stroke-linecap="round" stroke-linejoin="round"/>
</svg>
