<svg width="430" height="430" viewBox="0 0 430 430" fill="none" xmlns="http://www.w3.org/2000/svg">
<path d="M375.12 215C375.14 246.697 365.757 277.688 348.16 304.051C330.562 330.414 305.54 350.966 276.26 363.105C246.979 375.244 214.756 378.425 183.667 372.246C152.578 366.067 124.021 350.806 101.607 328.393C79.1942 305.979 63.9326 277.422 57.7537 246.333C51.5748 215.244 54.7561 183.021 66.8952 153.74C79.0342 124.46 99.5855 99.4379 125.949 81.8403C152.312 64.2427 183.303 54.8602 215 54.88C236.056 54.7767 256.924 58.8478 276.397 66.8579C295.871 74.8681 313.563 86.6585 328.452 101.548C343.341 116.437 355.132 134.129 363.142 153.603C371.152 173.076 375.223 193.944 375.12 215Z" fill="#FFC738"/>
<g style="mix-blend-mode:multiply" opacity="0.5">
<path d="M375.12 215C375.14 246.697 365.757 277.688 348.16 304.051C330.562 330.414 305.54 350.966 276.26 363.105C246.979 375.244 214.756 378.425 183.667 372.246C152.578 366.067 124.021 350.806 101.607 328.393C79.1942 305.979 63.9326 277.422 57.7537 246.333C51.5748 215.244 54.7561 183.021 66.8952 153.74C79.0342 124.46 99.5855 99.4379 125.949 81.8403C152.312 64.2427 183.303 54.8602 215 54.88C236.056 54.7767 256.924 58.8478 276.397 66.8579C295.871 74.8681 313.563 86.6585 328.452 101.548C343.341 116.437 355.132 134.129 363.142 153.603C371.152 173.076 375.223 193.944 375.12 215Z" fill="#FFC738"/>
</g>
<path d="M353.45 295.48C336.094 325.267 309.621 348.686 277.94 362.28L249.45 330.06L105 166.72L76.5299 134.52C93.8862 104.733 120.358 81.3141 152.04 67.72L180.53 99.94L325 263.28L353.45 295.48Z" fill="#FFC738"/>
<path d="M299.912 299.916C346.81 253.018 346.81 176.982 299.912 130.084C253.014 83.1855 176.977 83.1855 130.079 130.084C83.1814 176.982 83.1814 253.018 130.079 299.916C176.977 346.815 253.014 346.815 299.912 299.916Z" stroke="#B26836" stroke-width="7" stroke-linecap="round" stroke-linejoin="round"/>
</svg>
